<svg xmlns="http://www.w3.org/2000/svg" id="svg46" version="1.1" viewBox="0 0 258 199.2">
  <defs id="defs1">
    <style id="style1">
      .cls-1,.cls-2{fill:#fff}.cls-3{fill:#00b4ae}.cls-4{fill:#00c496}.cls-5{fill:#323694}.cls-2{stroke:#29398a;stroke-miterlimit:10;stroke-width:2px}
    </style>
  </defs>
  <g id="locked" transform="translate(-8.49 -23.92)">
    <path id="polygon1" fill="#29398a" d="m223.53 176.15-10.01 4-1.12 10.72-10.57 2.1-3.06 10.34-10.78.12-4.91 9.61-10.62-1.86-6.59 8.53-10.09-3.79-8.05 7.16-9.23-5.58-9.23 5.58-8.05-7.16-10.09 3.79-6.6-8.53-10.62 1.85-4.9-9.6-10.78-.13-3.06-10.33-10.57-2.1-1.12-10.72-10.01-4 .86-10.74-9.1-5.78 2.84-10.4-7.88-7.35 4.71-9.7-6.4-8.68 6.4-8.68-4.71-9.7 7.88-7.35-2.84-10.4 9.1-5.78-.86-10.74 10.01-4 1.12-10.72 10.57-2.1 3.06-10.34 10.78-.12 4.91-9.61 10.62 1.86 6.59-8.53 10.09 3.79 8.05-7.16 9.23 5.58 9.23-5.58 8.05 7.16 10.09-3.79 6.6 8.53 10.62-1.85 4.9 9.6 10.78.13 3.06 10.33 10.57 2.1 1.12 10.72 10.01 4-.86 10.74 9.1 5.78-2.84 10.4 7.88 7.35-4.71 9.7 6.4 8.68-6.4 8.68 4.71 9.7-7.88 7.35 2.84 10.4-9.1 5.78z"/>
    <circle id="circle1" cx="137.5" cy="123.5" r="88" class="cls-2"/>
    <circle id="circle2" cx="137.5" cy="123.5" r="80" class="cls-2"/>
    <g id="g30">
      <path id="path2" d="M228.53 183.45c-27.95-12.39-59.43-18.94-91.04-18.94-31.61 0-63.08 6.55-91.03 18.94l-3.98 1.76-1.42-4.11A1961.42 1961.42 0 0 0 28.52 146l-1.3-3.54 3.45-1.51c32.85-14.35 69.79-21.94 106.82-21.94 37.03 0 73.98 7.59 106.83 21.94l3.45 1.51-1.3 3.54a1917.75 1917.75 0 0 0-12.54 35.1l-1.42 4.11z" class="cls-1"/>
      <path id="path3" d="M266.5 169.23a253.26 253.26 0 0 0-23.36-12.15c-3.28 8.61-6.47 17.23-9.6 25.89l-8.8 2.11-.3.08-.56 4.12c9.27 3.94 18.25 8.5 26.86 13.66-.22-7.3-.61-14.63-1.21-21.96a268.36 268.36 0 0 1 16.97-11.75zM50.26 185.09l-8.81-2.11c-3.12-8.66-6.32-17.28-9.6-25.89a253.26 253.26 0 0 0-23.36 12.15 274.26 274.26 0 0 1 16.97 11.75 427.5 427.5 0 0 0-1.21 21.96c8.61-5.16 17.6-9.71 26.86-13.66l-.56-4.12-.3-.08z" class="cls-4"/>
      <path id="path4" d="M242.72 144.61C209.76 130.21 173.63 123 137.5 123c-36.13 0-72.26 7.2-105.22 21.61 4.31 11.7 8.49 23.42 12.57 35.17 29-12.86 60.83-19.29 92.65-19.29 31.82 0 63.65 6.43 92.66 19.29 4.07-11.76 8.26-23.47 12.57-35.17z" class="cls-4"/>
      <g id="g29">
        <path id="path5" d="m50.85 160.9-1.74.65-3.06-8.1 1.8-.67 3 8.12z" class="cls-1"/>
        <path id="path6" d="m57.15 149.54 2.69 8.23-.91.3c-.14.04-.26.06-.37.05a.95.95 0 0 1-.35-.13c-1.99-1.27-4-2.51-6.04-3.73l.16.38c.05.13.1.24.13.35l1.67 4.72-1.54.55-2.94-8.14.95-.34.2-.06c.06-.01.11-.02.16-.01.05 0 .1.02.16.04l.18.09c2.07 1.22 4.11 2.46 6.12 3.73l-.17-.4-.14-.38-1.57-4.7 1.6-.53z" class="cls-1"/>
        <path id="path7" d="m65.63 148.43-2.56.76 2.09 6.91-1.77.54-2.14-6.89-2.55.81-.44-1.37a253.7 253.7 0 0 1 6.97-2.14l.4 1.39z" class="cls-1"/>
        <path id="path8" d="m68.55 147.56.6 2.14 2.92-.79.35 1.31-2.9.79.61 2.19 3.7-1 .36 1.36c-1.82.48-3.64.98-5.46 1.49l-2.38-8.32c1.88-.54 3.76-1.05 5.64-1.55l.36 1.36-3.78 1.02z" class="cls-1"/>
        <path id="path9" d="m82.37 151.56-1.61.37c-.3.07-.55 0-.73-.18l-2.27-2.19a.84.84 0 0 0-.28-.17.73.73 0 0 0-.38.02l-.61.15.79 3.2-1.78.45-2.15-8.39 2.8-.7a6.03 6.03 0 0 1 1.64-.2c.47.02.87.1 1.21.25.33.15.6.36.8.63.2.27.34.59.42.95.06.28.08.55.06.82-.03.27-.09.52-.2.77-.11.24-.26.47-.45.68-.19.21-.42.4-.69.57.13.03.26.08.38.15.12.06.24.15.34.25.92.85 1.82 1.71 2.72 2.57zm-5.26-3.45c.29-.07.54-.17.74-.29.2-.12.35-.26.46-.42.11-.16.17-.33.2-.52.02-.19.01-.38-.04-.58-.09-.4-.31-.68-.64-.83-.33-.15-.78-.16-1.35-.02l-.95.23.66 2.66.93-.23z" class="cls-1"/>
        <path id="path10" d="M86.51 143.51a.56.56 0 0 1-.14.23.42.42 0 0 1-.22.11.7.7 0 0 1-.31-.03 5.4 5.4 0 0 0-.93-.22c-.19-.02-.41 0-.65.04-.43.09-.73.25-.9.48a.94.94 0 0 0-.17.78c.04.19.13.33.27.43.14.1.32.17.53.22.21.05.44.08.69.1.25.02.52.04.79.08.27.03.54.08.8.14.26.06.51.16.73.3.22.13.42.31.58.54a2.69 2.69 0 0 1 .35 2c-.07.37-.21.7-.42 1-.21.3-.49.57-.84.79a3.8 3.8 0 0 1-2.09.58 4.75 4.75 0 0 1-2.32-.57l.34-.95a.52.52 0 0 1 .14-.19.42.42 0 0 1 .22-.11c.11-.02.23 0 .37.04l.47.17c.18.06.38.11.6.14.22.03.48.02.77-.04.42-.09.73-.25.92-.49.19-.24.25-.54.17-.91a.75.75 0 0 0-.28-.48 1.39 1.39 0 0 0-.52-.24c-.2-.05-.43-.08-.68-.1a11.08 11.08 0 0 1-1.57-.18 2.32 2.32 0 0 1-.73-.29 1.99 1.99 0 0 1-.6-.56 2.45 2.45 0 0 1-.39-.95 2.31 2.31 0 0 1 .4-1.87c.2-.29.48-.54.82-.76.34-.22.75-.38 1.24-.48a4.83 4.83 0 0 1 1.55-.08c.49.06.92.2 1.3.42l-.29.92z" class="cls-1"/>
        <path id="path11" d="m92.93 146.03.59 3.28-1.8.33-.61-3.27c-1.39-1.55-2.8-3.08-4.24-4.61l1.63-.32c.16-.03.3-.02.41.03a.8.8 0 0 1 .29.23 229.52 229.52 0 0 1 2.33 2.87c.11.14.21.29.3.43l.11-.51.16-.55.98-2.94a.8.8 0 0 1 .18-.3c.09-.1.21-.16.36-.19l1.65-.28c-.8 1.93-1.58 3.87-2.34 5.81z" class="cls-1"/>
        <path id="path12" d="M100.87 141.03a.53.53 0 0 1-.15.22.45.45 0 0 1-.22.1.6.6 0 0 1-.31-.05c-.11-.05-.25-.09-.4-.14a2.35 2.35 0 0 0-1.16-.13c-.43.07-.74.21-.92.42a.92.92 0 0 0-.21.77c.03.19.11.34.25.44.14.11.31.19.51.25a4 4 0 0 0 .69.14 12.4 12.4 0 0 1 1.57.31c.26.08.49.19.71.34.21.15.4.34.55.57a2.85 2.85 0 0 1-.22 3c-.23.29-.52.54-.88.74a3.96 3.96 0 0 1-2.11.47 5.04 5.04 0 0 1-1.61-.34c-.25-.1-.47-.22-.67-.36l.39-.92a.43.43 0 0 1 .15-.18.49.49 0 0 1 .22-.1.6.6 0 0 1 .36.06l.46.19c.17.07.37.13.59.17.22.05.48.05.77 0 .42-.07.74-.21.94-.43.2-.22.28-.52.22-.9a.8.8 0 0 0-.25-.5c-.14-.12-.3-.21-.5-.27-.2-.06-.43-.11-.68-.14l-.77-.1c-.27-.04-.53-.1-.78-.17a2.2 2.2 0 0 1-1.28-.93 2.63 2.63 0 0 1-.29-1.93c.08-.32.23-.62.45-.89s.5-.51.86-.71a4.73 4.73 0 0 1 2.81-.4c.49.09.91.26 1.27.49l-.34.9z" class="cls-1"/>
        <path id="path13" d="m109.18 139.76-2.63.31.87 7.16-1.82.23-.92-7.15-2.63.35-.2-1.43c2.39-.33 4.78-.63 7.17-.9l.16 1.44z" class="cls-1"/>
        <path id="path14" d="m112.18 139.4.22 2.21 2.99-.28.12 1.35-2.97.28.22 2.26 3.78-.35.12 1.4c-1.86.16-3.73.33-5.59.53l-.92-8.61c1.93-.2 3.85-.39 5.78-.55l.12 1.4-3.87.35z" class="cls-1"/>
        <path id="path15" d="m127.37 136.95.34 8.65-1.61.07-.24-5.31V140c0-.13 0-.26.02-.39-.79 1.6-1.56 3.21-2.32 4.82a.66.66 0 0 1-.62.42l-.26.01a.79.79 0 0 1-.38-.08.72.72 0 0 1-.28-.27c-.94-1.52-1.9-3.03-2.88-4.53l.06.4.04.36.38 5.3-1.6.12-.67-8.63 1.43-.11h.21c.06 0 .12 0 .17.02.05.01.09.04.14.07l.13.15a415.88 415.88 0 0 1 3.06 4.86l.22.44.17-.48.19-.45c.74-1.58 1.49-3.15 2.26-4.72a.5.5 0 0 1 .24-.25l.16-.04.22-.02 1.43-.06z" class="cls-1"/>
        <path id="path16" d="M134.23 138.43a.92.92 0 0 1-.17.2.42.42 0 0 1-.23.07.64.64 0 0 1-.3-.09c-.11-.06-.23-.13-.37-.19a3.87 3.87 0 0 0-.49-.19 2.1 2.1 0 0 0-.65-.08c-.43 0-.76.11-.97.3a.95.95 0 0 0-.31.73c0 .19.07.35.19.47s.28.23.47.31c.19.09.41.16.66.23l.75.22c.26.08.51.18.75.29.25.11.46.25.66.43.19.17.35.39.47.64s.18.56.18.92c0 .39-.06.76-.2 1.11a2.67 2.67 0 0 1-1.57 1.53c-.38.15-.82.24-1.31.25a5.34 5.34 0 0 1-2.39-.61 3.18 3.18 0 0 1-.61-.44l.51-.87a.52.52 0 0 1 .4-.23c.11 0 .23.03.35.11l.43.25c.16.09.35.17.56.25.21.07.46.11.76.1.43 0 .76-.11.99-.31.23-.2.34-.48.34-.86a.83.83 0 0 0-.18-.53 1.47 1.47 0 0 0-.46-.33 3.53 3.53 0 0 0-.65-.22l-.75-.2a4.78 4.78 0 0 1-.75-.27c-.25-.1-.47-.24-.66-.42a2 2 0 0 1-.48-.66c-.13-.27-.2-.6-.21-1a2.34 2.34 0 0 1 .73-1.76c.25-.24.56-.44.94-.59.38-.15.81-.24 1.3-.25.55-.01 1.06.06 1.53.21s.87.37 1.19.66l-.45.85z" class="cls-1"/>
        <path id="path17" d="M145.17 143.39c.1 0 .19.04.25.12l.7.78c-.37.43-.83.76-1.36.97-.53.22-1.17.31-1.89.3a4.5 4.5 0 0 1-1.77-.36 3.87 3.87 0 0 1-1.33-.94c-.37-.4-.65-.87-.85-1.41-.2-.54-.3-1.13-.29-1.77a4.93 4.93 0 0 1 .58-2.3 4 4 0 0 1 1.59-1.54c.34-.18.7-.32 1.1-.41a5.22 5.22 0 0 1 3.05.25 4 4 0 0 1 1.29.86l-.66.8a.64.64 0 0 1-.15.13.36.36 0 0 1-.24.05c-.1 0-.2-.04-.3-.11l-.37-.24a2.59 2.59 0 0 0-1.39-.36c-.38 0-.73.05-1.05.18-.32.13-.59.31-.82.56-.23.25-.41.55-.54.91a4.01 4.01 0 0 0-.02 2.48c.13.37.31.67.53.93a2.46 2.46 0 0 0 1.78.79c.21 0 .4 0 .56-.02.17-.02.33-.05.47-.09.15-.04.28-.1.41-.17.13-.07.26-.16.4-.27l.14-.09c.05-.02.1-.03.16-.03z" class="cls-1"/>
        <path id="path18" d="m149.27 138.42-.1 2.22 2.99.15-.08 1.35c-.99-.06-1.98-.11-2.98-.15l-.1 2.27 3.79.2-.09 1.4c-1.87-.11-3.73-.21-5.6-.28l.33-8.65c1.93.07 3.87.17 5.8.29l-.09 1.4c-1.29-.08-2.59-.15-3.88-.21z" class="cls-1"/>
        <path id="path19" d="m161.07 146.52-1.64-.15c-.31-.03-.52-.16-.64-.4l-1.46-2.78a.63.63 0 0 0-.21-.24.78.78 0 0 0-.37-.1l-.63-.05-.24 3.29-1.82-.13.57-8.64c.95.06 1.91.13 2.86.21.63.05 1.17.16 1.61.32.44.16.79.37 1.06.62s.45.53.56.85a2.68 2.68 0 0 1-.09 1.83 2.48 2.48 0 0 1-1.07 1.18c-.25.14-.52.25-.83.32.11.07.22.16.31.26.1.1.18.21.25.34l1.78 3.29zm-3.9-4.91c.3.02.56 0 .78-.05.22-.06.41-.14.56-.26.15-.12.27-.26.35-.43.08-.17.13-.36.15-.56.03-.41-.08-.74-.35-.99-.27-.25-.69-.4-1.27-.44l-.97-.07-.2 2.73.95.07z" class="cls-1"/>
        <path id="path20" d="m168.81 140.1-2.63-.31-.8 7.17-1.82-.2.75-7.17-2.64-.26.14-1.44c2.4.23 4.79.49 7.18.78l-.18 1.43z" class="cls-1"/>
        <path id="path21" d="m170.84 147.64-1.82-.24 1.09-8.59 1.88.25-1.15 8.58z" class="cls-1"/>
        <path id="path22" d="m175.57 140.98-.35 2.37 3.2.5-.23 1.39-3.18-.5-.51 3.42-1.82-.27 1.22-8.57c1.92.27 3.84.57 5.75.88l-.23 1.38-3.85-.61z" class="cls-1"/>
        <path id="path23" d="m181.3 149.27-1.81-.32 1.45-8.54 1.87.33-1.52 8.52z" class="cls-1"/>
        <path id="path24" d="M189.47 148.69c.1.02.18.07.23.16l.56.89c-.44.36-.95.6-1.52.71-.57.12-1.21.1-1.93-.04a4.64 4.64 0 0 1-1.69-.67c-.48-.32-.86-.7-1.15-1.16a4.22 4.22 0 0 1-.59-1.54 5.2 5.2 0 0 1 .39-2.98 4.29 4.29 0 0 1 1.45-1.72 4.1 4.1 0 0 1 2.17-.7 5.7 5.7 0 0 1 2.2.37 4.47 4.47 0 0 1 1.41.9c.19.18.35.38.48.58l-.79.67c-.05.04-.1.08-.17.1a.36.36 0 0 1-.25 0 .54.54 0 0 1-.28-.16l-.32-.3a3.1 3.1 0 0 0-.5-.33 3.2 3.2 0 0 0-1.88-.28c-.34.07-.64.2-.91.4s-.5.47-.69.8c-.19.33-.33.72-.42 1.18-.09.46-.1.88-.04 1.26.06.38.18.72.36 1.01a2.37 2.37 0 0 0 1.62 1.1 4.19 4.19 0 0 0 1.04.08 2.16 2.16 0 0 0 .88-.3c.05-.03.1-.05.16-.06a.43.43 0 0 1 .16 0z" class="cls-1"/>
        <path id="path25" d="m198.55 152.97-1.38-.34a.64.64 0 0 1-.35-.2.63.63 0 0 1-.15-.33l-.2-1.75a194.6 194.6 0 0 0-3.47-.81l-.95 1.48a.67.67 0 0 1-.27.22.6.6 0 0 1-.4.04l-1.4-.3c1.73-2.58 3.5-5.14 5.31-7.69l1.89.44c.49 3.08.95 6.17 1.36 9.25zm-2.23-3.93-.34-2.8-.07-.52c-.02-.2-.04-.41-.04-.63l-.32.56-.29.44-1.54 2.35 2.6.61z" class="cls-1"/>
        <path id="path26" d="m206.51 147.62-2.58-.7-1.86 6.97-1.78-.47 1.81-6.98-2.59-.66.35-1.4c2.35.58 4.7 1.2 7.03 1.85l-.39 1.39z" class="cls-1"/>
        <path id="path27" d="m207.42 155.38-1.78-.51 2.36-8.33 1.84.53-2.42 8.31z" class="cls-1"/>
        <path id="path28" d="M218.79 154.41a4.42 4.42 0 0 1-2.21 2.59c-.5.25-1.06.39-1.66.43-.6.04-1.23-.04-1.88-.25a5.16 5.16 0 0 1-1.68-.88 4.43 4.43 0 0 1-1.11-1.31 4.55 4.55 0 0 1-.31-3.39c.18-.61.45-1.14.82-1.59a4.28 4.28 0 0 1 3.01-1.51c.62-.04 1.27.04 1.94.25.67.21 1.25.52 1.74.91a4.21 4.21 0 0 1 1.34 4.75zm-1.82-.61c.14-.43.21-.84.2-1.22a2.37 2.37 0 0 0-.87-1.86 3.1 3.1 0 0 0-1.04-.54c-.41-.13-.8-.18-1.16-.16-.36.03-.7.12-1 .3-.3.17-.56.41-.79.72a3.98 3.98 0 0 0-.72 2.34 2.34 2.34 0 0 0 .88 1.83c.28.23.62.4 1.02.53s.78.18 1.14.15c.36-.02.68-.12.98-.29.3-.17.57-.4.8-.7.23-.3.42-.67.56-1.11z" class="cls-1"/>
        <path id="path29" d="m228.95 153.45-3.06 8.1-.9-.34a.9.9 0 0 1-.32-.19.9.9 0 0 1-.19-.32c-.76-2.23-1.55-4.46-2.38-6.69l-.11.4-.11.36-1.66 4.72a93.5 93.5 0 0 0-1.54-.53l2.81-8.19.95.33.19.08c.05.02.1.06.13.09l.1.13a260.22 260.22 0 0 1 2.52 6.92 11.56 11.56 0 0 1 .25-.8l1.72-4.64 1.58.59z" class="cls-1"/>
      </g>
    </g>
    <g id="g41">
      <path id="path30" d="M117.16 178.85h-1.19v-6.41h1.19z" class="cls-5"/>
      <path id="path31" d="M121.91 178.85h-1.18v-2.68c0-.62-.43-.89-.87-.89s-.87.27-.87.89v2.68h-1.18v-4.6h1.18v.4c.2-.31.67-.53 1.08-.53.94 0 1.84.64 1.84 2z" class="cls-5"/>
      <path id="path32" d="M124.88 177.79v1.06h-1.13c-.82 0-1.18-.44-1.18-1.18v-4.46h1.18v1.04h1.13v1.06h-1.13v2.11c0 .21.05.37.34.37z" class="cls-5"/>
      <path id="path33" d="M126.43 176.86v.03c0 .54.31.9.87.9.41 0 .7-.2.81-.51h1.19c-.19.96-.88 1.57-2 1.57-1.32 0-2.05-.84-2.05-2.11v-.59c0-1.27.73-2.11 2.05-2.11 1.32 0 2.05.84 2.05 2.11v.71zm0-.98h1.74c-.04-.49-.34-.79-.86-.79s-.83.31-.87.78z" class="cls-5"/>
      <path id="path34" d="M131.21 178.85h-1.18v-4.6h1.18v.5c.13-.3.53-.58 1.07-.58h.36v1.15h-.55c-.45 0-.87.27-.87.89v2.64z" class="cls-5"/>
      <path id="path35" d="M133.2 176.79h1.23c.07.53.48.87 1.08.87.53 0 .89-.2.89-.62 0-.35-.2-.54-.64-.66l-1.05-.29c-.95-.26-1.43-.93-1.43-1.84 0-1.25.98-1.82 2.07-1.82 1.25 0 2.02.73 2.16 1.79h-1.23c-.11-.42-.54-.61-.94-.61-.5 0-.86.2-.86.63 0 .37.29.53.62.61l1.02.28c.96.26 1.48.85 1.48 1.9 0 1.12-.73 1.81-2.09 1.81-1.36 0-2.25-.82-2.31-2.06z" class="cls-5"/>
      <path id="path36" d="M140.44 179.26c-.25.69-.32 1.2-1.14 1.2h-.87v-1.06h.49c.21 0 .28-.11.31-.21l.13-.37-1.64-4.6h1.24l1.02 2.93 1.02-2.93h1.24l-1.81 5.03z" class="cls-5"/>
      <path id="path37" d="M142.14 177.27h1.18c.05.36.47.52.86.52.23 0 .58-.05.58-.36 0-.19-.13-.29-.41-.36l-.96-.21c-.5-.12-1.13-.51-1.13-1.41 0-.9.81-1.42 1.76-1.42s1.7.45 1.78 1.49h-1.2c-.06-.29-.32-.43-.61-.43-.34 0-.53.13-.54.35 0 .2.16.29.36.34l1.03.23c.5.12 1.11.46 1.11 1.42 0 1.02-.83 1.42-1.79 1.42-.96 0-1.95-.49-2-1.58z" class="cls-5"/>
      <path id="path38" d="M150.3 176.86v.03c0 .54.31.9.87.9.41 0 .7-.2.81-.51h1.19c-.19.96-.88 1.57-2 1.57-1.32 0-2.05-.84-2.05-2.11v-.59c0-1.27.73-2.11 2.05-2.11 1.32 0 2.05.84 2.05 2.11v.71zm0-.98h1.74c-.04-.49-.34-.79-.86-.79s-.83.31-.87.78z" class="cls-5"/>
      <path id="path39" d="M157.95 178.85h-1.18v-2.68c0-.62-.43-.89-.85-.89s-.85.28-.85.89v2.68h-1.18v-4.6h1.18v.38c.22-.31.64-.51 1.04-.51.48 0 .92.18 1.24.61.33-.4.8-.61 1.43-.61 1.17 0 2.02.65 2.02 2v2.73h-1.18v-2.68c0-.62-.43-.89-.85-.89s-.85.28-.85.89v2.68z" class="cls-5"/>
      <path id="path40" d="M161.26 177.27h1.18c.05.36.47.52.86.52.23 0 .58-.05.58-.36 0-.19-.13-.29-.41-.36l-.96-.21c-.5-.12-1.13-.51-1.13-1.41 0-.9.81-1.42 1.76-1.42s1.7.45 1.78 1.49h-1.2c-.06-.29-.32-.43-.61-.43-.34 0-.53.13-.54.35 0 .2.16.29.36.34l1.03.23c.5.12 1.11.46 1.11 1.42 0 1.02-.83 1.42-1.79 1.42-.96 0-1.95-.49-2-1.58z" class="cls-5"/>
      <path id="path41" d="M148.63 177.79v1.06h-1.13c-.82 0-1.18-.44-1.18-1.18v-4.46h1.18v1.04h1.13v1.06h-1.13v2.11c0 .21.05.37.34.37z" class="cls-5"/>
    </g>
    <path id="path42" d="M166.24 174.02c.41 0 .73.33.73.73 0 .4-.33.73-.73.73a.73.73 0 0 1-.73-.73c0-.4.33-.73.73-.73zm0 1.34a.6.6 0 0 0 .6-.6.6.6 0 0 0-.6-.6.6.6 0 0 0-.6.6c0 .33.27.6.6.6zm.35-.18-.22-.37c.12-.02.19-.11.19-.24 0-.15-.1-.25-.26-.25h-.35v.85h.14v-.36h.13l.21.36h.15zm-.5-.71h.21c.07 0 .12.04.12.11s-.05.11-.12.11h-.21z" class="cls-5"/>
    <g id="g43">
      <path id="polygon42" d="m110.05 170.24-1.76-.88v11.19l3.52 1.76v-1.97l-1.76-.88z" class="cls-5"/>
      <path id="polygon43" d="m111.81 180.34 1.76.88v-11.19l-3.52-1.76v1.97l1.76.88z" class="cls-3"/>
    </g>
    <g id="g45">
      <path id="polygon44" d="m134.5 60.34-8-3.95v50.2l16 7.91v-8.84l-8-3.96z" class="cls-5"/>
      <path id="polygon45" d="m142.5 105.66 8 3.96V59.41l-16-7.91v8.84l8 3.96z" class="cls-3"/>
    </g>
  </g>
</svg>
